<?xml version="1.0" encoding="utf-8"?>
<!-- Generator: Adobe Illustrator 26.3.1, SVG Export Plug-In . SVG Version: 6.00 Build 0)  -->
<svg version="1.1" id="Layer_1" xmlns="http://www.w3.org/2000/svg" xmlns:xlink="http://www.w3.org/1999/xlink" x="0px" y="0px"
	 viewBox="0 0 100 125" style="enable-background:new 0 0 100 125;" xml:space="preserve">
<style type="text/css">
	.st0{display:none;}
	.st1{display:inline;fill:#999999;}
	.st2{opacity:0.6;}
	.st3{fill:#FFFFFF;}
</style>
<g class="st0">
	<rect x="-657" y="-287" class="st1" width="1280" height="1310.4"/>
</g>
<g class="st2">
	<g>
		<path class="st3" d="M89.6,47.4H79.1V36.9c0-3-2.4-5.4-5.4-5.4s-5.4,2.4-5.4,5.4v10.5H57.7c-3,0-5.4,2.4-5.4,5.4s2.4,5.4,5.4,5.4
			h10.5v10.5c0,3,2.4,5.4,5.4,5.4s5.4-2.4,5.4-5.4V58.3h10.5c3,0,5.4-2.4,5.4-5.4C95,49.9,92.6,47.4,89.6,47.4z"/>
		<path class="st3" d="M29.2,56.9h2.9c6.6,0,11.9-5.4,11.9-11.9V39c0-6.6-5.4-11.9-11.9-11.9h-2.9c-6.6,0-11.9,5.4-11.9,11.9v5.9
			C17.3,51.5,22.7,56.9,29.2,56.9z"/>
		<path class="st3" d="M44.5,64.3H16.9C10.3,64.3,5,69.6,5,76.1v17.1c0,2,1.6,3.6,3.6,3.6h44.1c2,0,3.6-1.6,3.6-3.6V76.1
			C56.4,69.6,51.1,64.3,44.5,64.3z"/>
	</g>
</g>
</svg>
