<?xml version="1.0" encoding="utf-8"?>
<!-- Generator: Adobe Illustrator 26.3.1, SVG Export Plug-In . SVG Version: 6.00 Build 0)  -->
<svg version="1.1" id="Layer_1" xmlns:xodm="http://www.corel.com/coreldraw/odm/2003"
	 xmlns="http://www.w3.org/2000/svg" xmlns:xlink="http://www.w3.org/1999/xlink" x="0px" y="0px" viewBox="0 0 100 125"
	 style="enable-background:new 0 0 100 125;" xml:space="preserve">
<style type="text/css">
	.st0{opacity:0.6;}
	.st1{fill:#FFFFFF;}
</style>
<g class="st0">
	<path class="st1" d="M61.7,76.7l7.8,7.8L83.7,70C83.5,70,83.2,70,83,70H56.5c-1.2,0-2.2,0.5-3,1.2c-0.8,0.8-1.2,1.8-1.2,3v25.2
		c0.1,0.2,0.1,0.3,0.1,0.5s-0.1,0.4-0.1,0.5v0.4c0,1.2,0.5,2.2,1.2,3c0.8,0.8,1.8,1.2,3,1.2H83c1.2,0,2.2-0.5,3-1.2
		c0.8-0.8,1.2-1.8,1.2-3V78L70.3,95.1c-0.4,0.4-1,0.4-1.4,0L56.1,82.4c-0.4-0.4-0.4-1,0-1.4l4.2-4.3C60.7,76.3,61.3,76.3,61.7,76.7z
		 M68.9,86.6L61,78.8l-2.8,2.9L69.6,93L94,68.1l-2.8-2.8L70.3,86.6C69.9,87,69.2,87,68.9,86.6z M50.3,98.9V74.2
		c0-1.7,0.7-3.3,1.8-4.4c1.1-1.1,2.7-1.8,4.4-1.8h13.7c-2.5-3.8-5.8-6.9-9.7-9.2c-4.2-2.4-9.1-3.8-14.3-3.8H34.9
		c-7.9,0-15.1,3.3-20.4,8.5C9.2,68.8,6,76,6,84v9.2c0,1.6,0.6,3,1.7,4c1,1,2.4,1.7,4,1.7C11.6,98.9,50.3,98.9,50.3,98.9z M51.9,22.5
		c-2.9-2.9-7-4.8-11.4-4.8c-4.4,0-8.4,1.8-11.4,4.7c-2.9,3-4.7,7-4.7,11.5s1.8,8.6,4.7,11.5c2.9,2.9,7,4.8,11.4,4.8
		s8.5-1.8,11.4-4.8c2.9-2.9,4.7-7,4.7-11.5C56.7,29.5,54.9,25.5,51.9,22.5z"/>
</g>
</svg>
