<?xml version="1.0" encoding="utf-8"?>
<!-- Generator: Adobe Illustrator 26.3.1, SVG Export Plug-In . SVG Version: 6.00 Build 0)  -->
<svg version="1.1" id="Layer_1" xmlns="http://www.w3.org/2000/svg" xmlns:xlink="http://www.w3.org/1999/xlink" x="0px" y="0px"
	 viewBox="0 0 100 125" style="enable-background:new 0 0 100 125;" xml:space="preserve">
<style type="text/css">
	.st0{opacity:0.6;fill:#FFFFFF;}
</style>
<path class="st0" d="M50,16.5c-25.4,0-46,20.6-46,46s20.6,46,46,46s46-20.6,46-46S75.4,16.5,50,16.5z M54,98
	c-1.2,1.2-2.9,1.9-4.6,1.9S46,99.2,44.8,98L15.9,69.1c-2.2-2.2-2.7-5.5-1-8.1c2.3-3.7,7.2-4.1,10.1-1.2l18,18V31.6
	c0-4.1,3.8-7.3,8-6.3c3,0.7,5,3.4,5,6.5v45.8l17.8-17.8c2.9-2.9,7.8-2.5,10.1,1.2c1.6,2.6,1.1,6-1,8.1L54,98z"/>
</svg>
