<?xml version="1.0" encoding="utf-8"?>
<!-- Generator: Adobe Illustrator 26.3.1, SVG Export Plug-In . SVG Version: 6.00 Build 0)  -->
<svg version="1.1" id="Layer_1" xmlns="http://www.w3.org/2000/svg" xmlns:xlink="http://www.w3.org/1999/xlink" x="0px" y="0px"
	 viewBox="0 0 100 125" style="enable-background:new 0 0 100 125;" xml:space="preserve">
<style type="text/css">
	.st0{opacity:0.2;}
</style>
<g class="st0">
	<g>
		<path d="M50.1,70.4c5.3,0,10.2-1.6,14.4-4.2h15l-3-25.1l0,0c-1.4-13.3-12.7-23.8-26.4-23.8s-25,10.4-26.4,23.8l0,0l-3,25h15
			C39.9,68.8,44.8,70.4,50.1,70.4z"/>
		<path d="M83,77.1c-22.1,0-44.2,0-66.3,0c-4.5,10.2-6,21.2-6,32.5c26.2,0,52.5,0,78.7,0C89.5,98.1,87.6,87.2,83,77.1z"/>
	</g>
</g>
</svg>
