<?xml version="1.0" encoding="utf-8"?>
<!-- Generator: Adobe Illustrator 26.3.1, SVG Export Plug-In . SVG Version: 6.00 Build 0)  -->
<svg version="1.1" id="Layer_1" xmlns="http://www.w3.org/2000/svg" xmlns:xlink="http://www.w3.org/1999/xlink" x="0px" y="0px"
	 viewBox="0 0 100 125" style="enable-background:new 0 0 100 125;" xml:space="preserve">
<style type="text/css">
	.st0{opacity:0.6;}
	.st1{fill:#FFFFFF;}
</style>
<g class="st0">
	<path class="st1" d="M50,39.6c-11.4,0-20.6,9.3-20.6,20.6v20.6h6.6l2,18.7c0,4.3,3.6,7.9,7.9,7.9h7.8c4.3,0,7.9-3.5,7.9-7.8
		L64,80.9h6.6V60.3C70.6,48.9,61.4,39.6,50,39.6z M68.7,78.9h-6.4l-2.6,20.5l0,0.1c0,3.3-2.7,6-6,6h-7.8c-3.3,0-6-2.7-6-6l-2.2-20.6
		h-6.4V60.3c0-10.3,8.4-18.7,18.7-18.7c10.3,0,18.7,8.4,18.7,18.7L68.7,78.9L68.7,78.9z"/>
	<path class="st1" d="M50,39.1c6,0,10.8-4.9,10.8-10.8c0-6-4.8-10.8-10.8-10.8c-6,0-10.8,4.9-10.8,10.8C39.2,34.3,44,39.1,50,39.1z
		 M50,19.5c4.9,0,8.9,4,8.9,8.9c0,4.9-4,8.9-8.9,8.9c-4.9,0-8.9-4-8.9-8.9C41.1,23.4,45.1,19.5,50,19.5z"/>
	<polygon class="st1" points="50,49.9 44.7,88.7 41.6,88.7 50,97.2 58.4,88.7 55.3,88.7 	"/>
</g>
</svg>
