<svg id="Layer_1" data-name="Layer 1" xmlns="http://www.w3.org/2000/svg" viewBox="0 0 785.27 104.7"><defs><style>.cls-1{fill:#fff;}</style></defs><title>logo</title><path class="cls-1" d="M147.12,96.57H161.9l-41.85,104H116.8L83,116.35l-34.2,84.17H45.58L3.86,96.57H18.79l28.53,71.35L76,96.57H90l28.85,71.35Z" transform="translate(-3.86 -96.57)"/><path class="cls-1" d="M190.5,131.76q15.56,0,25.86,10T226.66,167q0,14.75-10.45,24.49t-26.3,9.74q-15.34,0-25.64-9.89T154,166.66q0-15,10.41-24.93T190.5,131.76Zm-0.74,12.15q-9.71,0-15.93,6.37t-6.22,16.23q0,9.78,6.37,16t16.38,6.19q9.93,0,16.26-6.26t6.34-16a21.42,21.42,0,0,0-6.59-16.08A22.93,22.93,0,0,0,189.76,143.91Z" transform="translate(-3.86 -96.57)"/><path class="cls-1" d="M256.08,131.91v15.63l0.74-1.19q9.78-15.78,19.56-15.78,7.63,0,15.93,7.71l-7.11,11.86q-7-6.67-13-6.67-6.52,0-11.3,6.22a23.51,23.51,0,0,0-4.78,14.75v35.64H242.52V131.91h13.56Z" transform="translate(-3.86 -96.57)"/><path class="cls-1" d="M302,96.57H315.5V200.08H302V96.57Z" transform="translate(-3.86 -96.57)"/><path class="cls-1" d="M380.49,96.57H394V200.08H365.22q-15.12,0-24.12-9.56t-9-25.64q0-15,9.45-24.75t24.12-9.71a43.87,43.87,0,0,1,14.82,2.89V96.57Zm0,92v-43.2a28,28,0,0,0-12.74-3.19q-10.08,0-16,6.59t-6,17.78q0,10.52,5.19,16.23a16,16,0,0,0,6.59,4.59q3.48,1.19,12.52,1.19h10.45Z" transform="translate(-3.86 -96.57)"/><path class="cls-1" d="M499.17,96.57h14.76l-43.76,104h-3.36l-44.61-104h14.92l31.13,72.69Z" transform="translate(-3.86 -96.57)"/><path class="cls-1" d="M530.38,103.24a7.91,7.91,0,0,1,5.7,2.3,7.54,7.54,0,0,1,2.37,5.63,7.69,7.69,0,0,1-2.37,5.63,7.77,7.77,0,0,1-5.7,2.37,7.47,7.47,0,0,1-5.48-2.41,7.73,7.73,0,0,1-2.37-5.59,7.64,7.64,0,0,1,2.37-5.52A7.47,7.47,0,0,1,530.38,103.24Zm-6.67,28.67H537.2v68.17H523.71V131.91Z" transform="translate(-3.86 -96.57)"/><path class="cls-1" d="M553.35,195.19V180.67A61.39,61.39,0,0,0,565,187.15a27.19,27.19,0,0,0,10,2.48,12.57,12.57,0,0,0,7.26-2.07q3-2.07,3-5a6.69,6.69,0,0,0-2-4.93q-2-2-8.48-5.67-13-7.26-17.08-12.41a17.8,17.8,0,0,1-4-11.23,15.76,15.76,0,0,1,6.11-12.82q6.11-5,15.75-5,10,0,20.53,5.63v13.34q-12-7.26-19.64-7.26a10.91,10.91,0,0,0-6.33,1.67,5.13,5.13,0,0,0-2.41,4.41,6.35,6.35,0,0,0,2.18,4.53,37.26,37.26,0,0,0,7.67,5.19l4.82,2.74q17,9.63,17,21.33A17,17,0,0,1,593,195.9q-6.56,5.37-16.86,5.37a41.14,41.14,0,0,1-10.82-1.3A72.66,72.66,0,0,1,553.35,195.19Z" transform="translate(-3.86 -96.57)"/><path class="cls-1" d="M622,103.24a7.91,7.91,0,0,1,5.71,2.3,7.54,7.54,0,0,1,2.37,5.63,7.69,7.69,0,0,1-2.37,5.63,7.78,7.78,0,0,1-5.71,2.37,7.47,7.47,0,0,1-5.48-2.41,7.73,7.73,0,0,1-2.37-5.59,7.65,7.65,0,0,1,2.37-5.52A7.48,7.48,0,0,1,622,103.24Zm-6.67,28.67h13.49v68.17H615.37V131.91Z" transform="translate(-3.86 -96.57)"/><path class="cls-1" d="M680.94,131.76q15.56,0,25.86,10T717.1,167q0,14.75-10.45,24.49t-26.3,9.74q-15.34,0-25.64-9.89t-10.3-24.71q0-15,10.41-24.93T680.94,131.76Zm-0.74,12.15q-9.71,0-15.93,6.37T658,166.51q0,9.78,6.37,16t16.38,6.19q9.93,0,16.26-6.26t6.34-16a21.42,21.42,0,0,0-6.59-16.08A22.93,22.93,0,0,0,680.2,143.91Z" transform="translate(-3.86 -96.57)"/><path class="cls-1" d="M745.55,131.91v8.67q9-10,20.52-10a22.61,22.61,0,0,1,11.86,3.3,21.51,21.51,0,0,1,8.34,9q2.85,5.74,2.85,18.19v39H775.64V161.25q0-10.45-3.19-14.93t-10.67-4.48q-9.56,0-16.23,9.56v48.68H731.77V131.91h13.78Z" transform="translate(-3.86 -96.57)"/></svg>