<?xml version="1.0" encoding="utf-8"?>
<!-- Generator: Adobe Illustrator 26.3.1, SVG Export Plug-In . SVG Version: 6.00 Build 0)  -->
<svg version="1.1" id="Layer_1" xmlns="http://www.w3.org/2000/svg" xmlns:xlink="http://www.w3.org/1999/xlink" x="0px" y="0px"
	 viewBox="0 0 90 112" style="enable-background:new 0 0 90 112;" xml:space="preserve">
<style type="text/css">
	.st0{opacity:0.6;fill:#FFFFFF;}
</style>
<g>
	<g>
		<path class="st0" d="M26.9,48.5c0.3,1.6,1.1,2.9,2,3.7c0.5,0.4,0.8,1.1,1,1.6c0.8,3.9,2.5,7.3,4.8,10l0,0l0.2,4.5
			c0.1,1.1-0.3,2.1-1.1,2.7c-0.7,0.5-1.5,1.1-2.8,2l0,0c3.7,4.4,7.9,5.7,14.4,5.7c4.8,0,8.6-0.6,11.7-2.6c1.7-1.1,2-3.6,0.5-5.1l0,0
			c-0.6-0.7-1-1.5-1-2.3v-6.2l0,0c1.7-2.4,3-5.3,3.7-8.5c0.2-0.7,0.7-1.4,1.2-1.9c0.9-0.7,1.7-2.1,2.1-3.7c0.3-1.5,0.2-2.9-0.3-3.9
			c-0.2-0.7-0.3-1.4-0.2-2.1c3.3-11.8-1.9-17.9-8.3-18.2c0,0-6.7-6.2-11.9-6c-8.9,0.3-16.9,7.2-16.4,17.7c0.1,2.2,0.4,4.4,1,6.6
			c0.2,0.7,0.2,1.4-0.1,2.1C26.7,45.6,26.5,47,26.9,48.5z"/>
		<path class="st0" d="M85.3,90.6c-1.6-7.5-10.1-13.3-19.7-15.9c-4.6,4.4-12.2,8.9-20.5,8.9c-8,0-15.6-4.6-20.2-8.9
			c-9.6,2.5-18.4,8.4-20,15.9c0,0-0.2,0.7-0.5,3h81.5L85.3,90.6z"/>
	</g>
</g>
</svg>
