<?xml version="1.0" encoding="utf-8"?>
<!-- Generator: Adobe Illustrator 26.3.1, SVG Export Plug-In . SVG Version: 6.00 Build 0)  -->
<svg version="1.1" id="Layer_1" xmlns="http://www.w3.org/2000/svg" xmlns:xlink="http://www.w3.org/1999/xlink" x="0px" y="0px"
	 viewBox="0 0 100 125" style="enable-background:new 0 0 100 125;" xml:space="preserve">
<style type="text/css">
	.st0{opacity:0.6;}
	.st1{fill:#FFFFFF;}
</style>
<g class="st0">
	<path class="st1" d="M50.4,74c-2.7,0-5.4-0.4-8-1.1L20,66.2v15.3c0,2.8,1.8,5.2,4.5,6l9.8,2.9c10.8,3.2,22.2,3.2,33,0l9.8-2.9
		c2.7-0.8,4.5-3.2,4.5-6l0-15.5l-23.2,6.9C55.8,73.7,53.1,74,50.4,74L50.4,74z"/>
	<path class="st1" d="M95.9,49.2L56.4,37.5c-3.9-1.2-8.1-1.2-12.1,0L4.9,49.2c-2.7,0.8-2.7,4.7,0,5.5l39.5,11.7
		c3.9,1.2,8.1,1.2,12.1,0l33.8-10v8.9c-0.7,0.4-1.2,1.1-1.2,1.9v2.4c0,0.9,0.5,1.7,1.3,2l-2.1,4.9c-0.3,0.7,0.1,1.4,0.9,1.5l2.2,0.2
		h1.3l2.2-0.2c0.7-0.1,1.1-0.8,0.9-1.5l-2.1-4.9c0.8-0.4,1.3-1.1,1.3-2v-2.4c0-0.8-0.5-1.5-1.2-1.9v-9.9l2.2-0.7
		C98.6,53.8,98.6,50,95.9,49.2L95.9,49.2z"/>
</g>
</svg>
