<?xml version="1.0" encoding="utf-8"?>
<!-- Generator: Adobe Illustrator 26.3.1, SVG Export Plug-In . SVG Version: 6.00 Build 0)  -->
<svg version="1.1" id="Layer_1" xmlns="http://www.w3.org/2000/svg" xmlns:xlink="http://www.w3.org/1999/xlink" x="0px" y="0px"
	 viewBox="0 0 90 112.5" style="enable-background:new 0 0 90 112.5;" xml:space="preserve">
<style type="text/css">
	.st0{opacity:0.6;fill:#FFFFFF;}
</style>
<path class="st0" d="M19,65.9h6.9v22.3c0,1.9-1.5,3.4-3.4,3.4c-1.9,0-3.4-1.5-3.4-3.4V65.9z M27.6,88.2c0,1.9,1.5,3.4,3.4,3.4
	c1.9,0,3.4-1.5,3.4-3.4V65.9h-6.9V88.2z M16.7,56.6c-0.7-0.4-1.1-1.1-1.1-2c0-1.2,0.9-2.2,2.1-2.3c0.9-3.9,2-8.2,2.8-11.6h-4.3
	c-1.3,0-2.3,1-2.3,2.3v2.1l-4.8,4.9c-0.6,0.6-0.8,1.4-0.6,2.2c0.2,0.8,0.8,1.5,1.6,1.7l3.9,1.3v2.9c0,1.1,0.8,2,1.8,2.3
	C16,59.6,16.3,58.2,16.7,56.6z M26.7,38.7c4.3,0,7.7-3.5,7.7-7.7s-3.5-7.7-7.7-7.7S19,26.7,19,30.9C19,35.2,22.4,38.7,26.7,38.7z
	 M35.2,56.9c-1.1-0.2-1.9-1.1-1.9-2.3c0-0.8,0.4-1.4,0.9-1.9c-0.8-3.1-1.7-7.2-3-12.6c-1.3-0.5-2.8-0.8-4.4-0.8v0l0,0
	c-1.6,0-3.1,0.3-4.4,0.8c-1.3,5.4-2.3,9.5-3,12.6c0.6,0.4,0.9,1.1,0.9,1.9c0,1.1-0.8,2.1-1.9,2.3c-0.5,1.9-0.8,3.1-1,4v3.3h18.9
	v-3.3C35.9,60.1,35.6,58.8,35.2,56.9z M44.3,50.1l-4.2-4.3v-2.8c0-1.3-1-2.3-2.3-2.3h-4.9c0.8,3.4,1.9,7.7,2.8,11.6
	c1.2,0.1,2.1,1.1,2.1,2.3c0,0.8-0.4,1.6-1.1,2c0.4,1.6,0.7,3,1,3.9h0.1c1.3,0,2.3-1,2.3-2.3v-3.1l3.2-1.1c0.8-0.3,1.4-0.9,1.6-1.7
	C45.1,51.6,44.9,50.7,44.3,50.1z"/>
<path class="st0" d="M74.3,54.7c0,1.2,0.9,2.1,2,2.3l4.1,16.9H55.2l4.1-16.9c1.1-0.2,2-1.1,2-2.3c0-0.8-0.4-1.4-1-1.9l3.1-12.5
	c1.3-0.5,2.8-0.8,4.4-0.8c1.6,0,3.1,0.3,4.4,0.8l3.1,12.5C74.7,53.2,74.3,53.9,74.3,54.7z M59,29.6c0.5-0.1,0.9-0.3,1.3-0.6
	c-0.2,0.6-0.3,1.3-0.3,2c0,4.3,3.5,7.7,7.7,7.7c4.3,0,7.7-3.5,7.7-7.7s-3.5-7.7-7.7-7.7c-1.7,0-3.2,0.5-4.4,1.4
	c0.8-1.4,1.7-2.5,3-2.7c1.4-0.2,2.8,0,2.8,0c0.5-1.5-1-5.4-5.9-4.1c-4.4,1.2-4,4.3-3.5,6.4c0.5,1.9-0.2,3.1-1.9,3.5
	c-1.6,0.4-2.7-1.4-2.8-2.3C54,26.6,55.6,30.2,59,29.6z M55,58.3c0,1.1,0.8,2,1.8,2.2l0.9-3.9c-0.6-0.4-1.1-1.1-1.1-2
	c0-1.2,0.9-2.2,2.1-2.3l2.8-11.6h-4.3c-1.3,0-2.3,1-2.3,2.3v2.1l-4.8,4.9c-0.6,0.6-0.8,1.4-0.6,2.2c0.2,0.8,0.8,1.5,1.6,1.7l3.9,1.3
	C55,55.4,55,58.3,55,58.3z M60.1,75.6v12.6c0,1.9,1.5,3.4,3.4,3.4c1.9,0,3.4-1.5,3.4-3.4V75.6H60.1L60.1,75.6z M85.4,50.1l-4.2-4.3
	v-2.8c0-1.3-1-2.3-2.3-2.3H74l2.8,11.6c1.2,0.1,2.1,1.1,2.1,2.3c0,0.8-0.4,1.5-1.1,2l1,4h0.1c1.3,0,2.3-1,2.3-2.3v-3.1l3.2-1.1
	c0.8-0.3,1.4-0.9,1.6-1.7C86.2,51.6,86,50.7,85.4,50.1z M68.6,88.2L68.6,88.2c0,1.9,1.5,3.4,3.4,3.4c1.9,0,3.4-1.5,3.4-3.4V75.6
	h-6.9L68.6,88.2L68.6,88.2z"/>
</svg>
