<?xml version="1.0" encoding="utf-8"?>
<!-- Generator: Adobe Illustrator 26.3.1, SVG Export Plug-In . SVG Version: 6.00 Build 0)  -->
<svg version="1.1" id="Layer_1" xmlns="http://www.w3.org/2000/svg" xmlns:xlink="http://www.w3.org/1999/xlink" x="0px" y="0px"
	 viewBox="0 0 100 125" style="enable-background:new 0 0 100 125;" xml:space="preserve">
<style type="text/css">
	.st0{opacity:0.6;fill:#FFFFFF;}
</style>
<path class="st0" d="M50,16.5c-25.4,0-46,20.6-46,46s20.6,46,46,46s46-20.6,46-46S75.4,16.5,50,16.5z M85,63.9
	c-1.3,2.2-3.5,3.2-5.6,3.2c-1.7,0-3.3-0.6-4.6-1.9L57,47.4v46c0,4.1-3.8,7.3-8,6.3c-3-0.7-5-3.4-5-6.5v-46L26.1,65.1
	c-2.2,2.2-5.5,2.7-8.1,1c-3.7-2.3-4.1-7.2-1.2-10.1l29-29c2.5-2.5,6.7-2.5,9.2,0l28.9,28.9C85.9,57.9,86.4,61.5,85,63.9z"/>
</svg>
