<svg xmlns="http://www.w3.org/2000/svg" width="21" height="27" viewBox="0 0 21 27">
  <g id="Group_3" data-name="Group 3" transform="translate(-8872.234 -1218)">
    <path id="Path_14" data-name="Path 14" d="M156.25,55h18a.75.75,0,0,0,.75-.75V28.75a.75.75,0,0,0-.75-.75h-18A2.252,2.252,0,0,0,154,30.25v22.5A2.252,2.252,0,0,0,156.25,55Zm2.25-25.5h15v21h-15Zm-3,.75a.751.751,0,0,1,.75-.75H157v21h-.75a2.228,2.228,0,0,0-.75.131ZM156.25,52h16.5v1.5h-16.5a.75.75,0,1,1,0-1.5Z" transform="translate(8718.234 1190)"/>
    <path id="Path_15" data-name="Path 15" d="M275.75,112h-7.5a2.252,2.252,0,0,0-2.25,2.25v4.5a2.252,2.252,0,0,0,2.25,2.25h7.5a2.252,2.252,0,0,0,2.25-2.25v-4.5A2.252,2.252,0,0,0,275.75,112Zm.75,6.75a.751.751,0,0,1-.75.75h-7.5a.751.751,0,0,1-.75-.75v-4.5a.751.751,0,0,1,.75-.75h7.5a.751.751,0,0,1,.75.75Z" transform="translate(8612.234 1110.5)"/>
  </g>
</svg>
