<svg xmlns="http://www.w3.org/2000/svg" width="23.944" height="24.299" viewBox="0 0 23.944 24.299">
  <g id="Group_7" data-name="Group 7" transform="translate(-1571.493 -377)">
    <path id="Path_40" data-name="Path 40" d="M184.234,317.8a.709.709,0,0,0-.709.709v5.5a2.131,2.131,0,0,1-2.128,2.128H164.546a2.131,2.131,0,0,1-2.128-2.128v-5.5a.709.709,0,0,0-1.419,0v5.5a3.551,3.551,0,0,0,3.547,3.547H181.4a3.551,3.551,0,0,0,3.547-3.547v-5.5A.709.709,0,0,0,184.234,317.8Z" transform="translate(1410.494 73.744)" fill="#fafafa"/>
    <path id="Path_41" data-name="Path 41" d="M340.221,107.268a.709.709,0,1,1-1.419,0V88.91a.709.709,0,1,1,1.419,0Z" transform="translate(1243.954 288.799)" fill="#fafafa"/>
    <path id="Path_42" data-name="Path 42" d="M340.019,316.987A.709.709,0,1,1,339,316l4.069-4.207a.709.709,0,1,1,1.019.987Z" transform="translate(1243.956 79.572)" fill="#fafafa"/>
    <path id="Path_43" data-name="Path 43" d="M278.825,316.987a.709.709,0,1,0,1.019-.987l-4.069-4.207a.709.709,0,1,0-1.019.987Z" transform="translate(1304.13 79.572)" fill="#fafafa"/>
  </g>
</svg>
