<svg xmlns="http://www.w3.org/2000/svg" width="24.188" height="28.207" viewBox="0 0 24.188 28.207">
  <path id="noun-filter-4606293" d="M149.093,63.2a1.349,1.349,0,0,1-1.343-1.343V51.45l-7.9-14.439A1.343,1.343,0,0,1,141.034,35h21.491a1.333,1.333,0,0,1,1.155,2L155.809,51.45v6.38a1.343,1.343,0,0,1-.537,1.074L149.9,62.934h0a1.342,1.342,0,0,1-.806.269Zm-5.8-25.52,6.984,12.76a1.345,1.345,0,0,1,.161.645v8.059l2.686-1.988V51.114a1.343,1.343,0,0,1,.161-.645l6.984-12.787Z" transform="translate(-139.672 -34.996)"/>
</svg>
