<svg xmlns="http://www.w3.org/2000/svg" width="27.967" height="27.888" viewBox="0 0 27.967 27.888">
  <path id="Path_38" data-name="Path 38" d="M343.81,209.885a10.138,10.138,0,0,0-20.265,0,10.141,10.141,0,0,0,10.131,17.34,10.043,10.043,0,0,0,3.835.756,10.144,10.144,0,0,0,6.3-18.1Zm-1.282,7.949a5.022,5.022,0,0,1-3.77,4.854,10.08,10.08,0,0,0,1.22-4.49,10.172,10.172,0,0,0,2.146-2.335,4.988,4.988,0,0,1,.4,1.971Zm-5.28-6.439a6.478,6.478,0,0,0-4.064,1.67c-.012.011-.028.016-.039.029s0,.007-.006.01a6.447,6.447,0,0,0-1.362,1.786,5.053,5.053,0,0,1-1.859-1.32,8.56,8.56,0,0,1,4.05-3.7,8.632,8.632,0,0,1,3.54-.752,8.87,8.87,0,0,1,1.07.073,4.984,4.984,0,0,1-.036,2.285,6.455,6.455,0,0,0-1.034-.086c-.05,0-.1,0-.149.006a.553.553,0,0,0-.112,0Zm-6.876,11.428A8.594,8.594,0,0,1,328.9,219.2a10.093,10.093,0,0,0,2.6.964,6.457,6.457,0,0,0,1.111,1.858,5,5,0,0,1-.764.418,4.944,4.944,0,0,1-1.471.388Zm-2.424-9.633a6.453,6.453,0,0,0,.486.8c0,.006.008.012.011.018s.023.04.037.058.02.024.029.036l.007.008a6.425,6.425,0,0,0,5.159,2.586,6.417,6.417,0,0,0,1.027-.086,4.859,4.859,0,0,1,.043,2.283,8.662,8.662,0,0,1-8.665-4.369,5.052,5.052,0,0,1,1.867-1.335Zm-2.719,2.678a10.236,10.236,0,0,0,2.145,2.324,10.02,10.02,0,0,0,1.225,4.5,5.009,5.009,0,0,1-3.37-6.82Zm8.445,5.194a5.092,5.092,0,0,1-.476-.683c.159.008.319.021.479.021s.324-.013.486-.022A5.028,5.028,0,0,1,333.674,221.062Zm-.452-5.826a4.991,4.991,0,0,1,.454-.628,4.978,4.978,0,0,1,.452.628,5.092,5.092,0,0,1-.907,0Zm.455-6.8a10.057,10.057,0,0,0-3.833-.755c-.167,0-.329.017-.494.025a5.012,5.012,0,0,1,8.643,0c-.162-.008-.323-.021-.484-.021a10.037,10.037,0,0,0-3.832.755Zm0-6.908a8.711,8.711,0,0,1,6.208,14.832,9.979,9.979,0,0,0-.768-2.655,6.414,6.414,0,0,0,.734-5.315l-.006-.025c-.011-.037-.025-.073-.037-.11l0-.006a6.445,6.445,0,0,0-12.142-.325,10.062,10.062,0,0,0-2.587.953,8.727,8.727,0,0,1,8.6-7.349Zm-12.551,16.305a8.687,8.687,0,0,1,10.791-8.461,10.236,10.236,0,0,0-2.241,2.021,6.455,6.455,0,0,0-1.442.2.75.75,0,0,0-.168.04l-.012.006a6.461,6.461,0,0,0-3.353,2.318.737.737,0,0,0-.1.128,6.439,6.439,0,0,0,5.24,10.2c.046,0,.092-.006.137-.007.012,0,.025,0,.037,0s.036-.008.055-.009a6.375,6.375,0,0,0,2.341-.524,6.448,6.448,0,0,0,1.741-1.123c.014-.012.026-.027.039-.039l.014-.012,0,0a6.469,6.469,0,0,0,1.77-2.763.731.731,0,0,0,.042-.154,6.273,6.273,0,0,0-.13-4.029c0-.012,0-.024-.006-.036a.709.709,0,0,0-.071-.165,6.47,6.47,0,0,0-1.069-1.766,5.023,5.023,0,0,1,2.239-.809,8.613,8.613,0,0,1,1.579,4.986,8.72,8.72,0,0,1-17.439,0Zm16.384,8.719a8.667,8.667,0,0,1-2.07-.258,10.248,10.248,0,0,0,2.246-2.021,6.453,6.453,0,0,0,6.274-6.44,6.382,6.382,0,0,0-1.015-3.466,10.17,10.17,0,0,0,.771-2.648,8.71,8.71,0,0,1-6.206,14.832Z" transform="translate(-319.695 -200.097)"/>
</svg>
