<?xml version="1.0" encoding="utf-8"?>
<!-- Generator: Adobe Illustrator 19.0.0, SVG Export Plug-In . SVG Version: 6.00 Build 0)  -->
<svg version="1.1" id="Layer_1" xmlns="http://www.w3.org/2000/svg" xmlns:xlink="http://www.w3.org/1999/xlink" x="0px" y="0px"
	 viewBox="-500 239.9 22.6 22.1" style="enable-background:new -500 239.9 22.6 22.1;" xml:space="preserve">
<style type="text/css">
	.st0{fill:#FFFFFF;}
</style>
<path id="Path_25" class="st0" d="M-477.4,244c-0.1,0.4-0.4,0.8-0.9,0.8c0,0-0.1,0-0.1,0l-1.6-0.2l0,0c3.5,5,2.3,11.9-2.7,15.4
	s-11.9,2.3-15.4-2.7c-3.5-5-2.3-11.9,2.7-15.4c1.9-1.3,4.1-2,6.4-2c0.5,0,0.9,0.4,0.9,0.9c0,0.5-0.4,0.9-0.9,0.9
	c-5.1,0-9.3,4.1-9.3,9.2s4.1,9.3,9.2,9.3c5.1,0,9.3-4.1,9.3-9.2c0-1.9-0.6-3.8-1.7-5.3l-0.1,2l0,0c0,0.5-0.4,0.9-0.9,0.9h0
	c-0.5,0-0.9-0.4-0.9-0.9c0,0,0,0,0,0l0.2-4.2c0,0,0,0,0,0s0,0,0,0s0,0,0,0l0,0c0,0,0,0,0-0.1s0-0.1,0-0.1s0,0,0,0s0,0,0,0
	c0,0,0,0,0-0.1c0,0,0,0,0,0s0,0,0,0s0,0,0-0.1l0,0c0,0,0,0,0,0c0,0,0,0,0,0c0,0,0,0,0,0s0,0,0,0s0,0,0.1,0l0,0c0,0,0,0,0.1,0
	c0,0,0,0,0.1,0l0,0c0,0,0,0,0.1,0c0,0,0,0,0.1,0l0.1,0c0,0,0,0,0.1,0c0,0,0,0,0.1,0c0,0,0,0,0,0s0,0,0,0h0l4,0.5l0,0
	C-477.6,243.1-477.3,243.5-477.4,244C-477.4,244-477.4,244-477.4,244L-477.4,244z"/>
</svg>
